<?xml version="1.0" standalone="no"?>
<!DOCTYPE svg PUBLIC "-//W3C//DTD SVG 20010904//EN"
 "http://www.w3.org/TR/2001/REC-SVG-20010904/DTD/svg10.dtd">
<svg version="1.0" xmlns="http://www.w3.org/2000/svg"
 width="152.000000pt" height="152.000000pt" viewBox="0 0 152.000000 152.000000"
 preserveAspectRatio="xMidYMid meet">
<metadata>
Created by potrace 1.11, written by Peter Selinger 2001-2013
</metadata>
<g transform="translate(0.000000,152.000000) scale(0.100000,-0.100000)"
fill="#000000" stroke="none">
<path d="M0 760 l0 -760 760 0 760 0 0 760 0 760 -760 0 -760 0 0 -760z m1194
291 c50 -28 77 -65 90 -123 l6 -28 -59 0 c-54 0 -59 2 -65 25 -15 60 -140 83
-191 35 -57 -54 -24 -88 122 -124 126 -31 165 -52 189 -97 23 -44 16 -135 -14
-176 -29 -41 -99 -74 -172 -80 -114 -11 -216 35 -251 110 -31 70 -28 77 40 77
57 0 59 -1 64 -30 8 -40 51 -60 125 -60 72 0 112 25 112 70 0 40 -29 57 -145
86 -115 28 -159 48 -180 80 -22 34 -30 105 -16 147 16 48 80 104 128 112 21 4
43 8 48 10 27 11 124 -9 169 -34z m-589 -7 c171 -88 156 -455 -22 -530 -23
-10 -79 -14 -188 -14 l-155 0 0 286 0 286 163 -4 c140 -3 167 -6 202 -24z"/>
<path d="M360 780 l0 -192 74 4 c115 5 161 51 172 169 7 75 -7 138 -40 176
-23 26 -30 28 -115 31 l-91 4 0 -192z"/>
</g>
</svg>
